<?xml version="1.0" encoding="UTF-8" standalone="no"?>
<svg
   width="560pt"
   height="560pt"
   version="1.1"
   viewBox="0 0 560 560"
   id="svg154"
   xmlns="http://www.w3.org/2000/svg"
   xmlns:svg="http://www.w3.org/2000/svg">
  <defs
     id="defs68" />
  <g
     id="g152"
     transform="translate(-69.999998)">
    <path
       d="M 351.46,0 C 503.92,0 630,126.07 630,281.46 630,433.92 503.93,560 351.46,560 196.07,560 70,433.93 70,281.46 70,126.07 196.07,0 351.46,0 Z m 0,38.113 c 131.94,0 240.42,108.48 240.42,243.35 0,131.94 -108.48,240.42 -240.42,240.42 -134.87,0 -243.35,-108.48 -243.35,-240.42 0,-134.87 108.48,-243.35 243.35,-243.35 z"
       fill-rule="evenodd"
       id="path70" />
    <path
       d="m 369.06,181.78 c 14.66,2.9336 26.387,5.8633 38.113,14.66 l 43.98,-46.91 c 20.523,-17.59 46.91,11.727 29.32,29.32 l -46.91,43.98 c 8.7969,11.727 14.66,23.457 14.66,38.113 h 64.504 c 26.387,0 26.387,38.113 0,38.113 h -64.504 c 0,14.66 -5.8633,26.387 -14.66,38.113 l 46.91,43.98 c 17.59,20.523 -8.7969,46.91 -29.32,29.32 l -43.98,-46.91 c -11.727,8.7969 -23.457,14.66 -38.113,14.66 v 64.504 c 0,26.387 -38.113,26.387 -38.113,0 v -64.504 c -14.66,0 -26.387,-5.8633 -38.113,-14.66 l -43.98,46.91 c -17.59,17.59 -46.91,-8.7969 -29.32,-29.32 l 46.91,-43.98 c -8.7969,-11.727 -11.727,-23.457 -14.66,-38.113 H 187.28 c -26.387,0 -26.387,-38.113 0,-38.113 h 64.504 c 2.9336,-14.66 5.8633,-26.387 14.66,-38.113 l -46.91,-43.98 c -17.59,-17.59 11.727,-46.91 29.32,-29.32 l 43.98,46.91 c 11.727,-8.7969 23.457,-11.727 38.113,-14.66 v -64.504 c 0,-26.387 38.113,-26.387 38.113,0 z"
       fill-rule="evenodd"
       id="path72" />
  </g>
</svg>
